<svg xmlns="http://www.w3.org/2000/svg" width="200" height="200" viewBox="0 0 200 200" role="img" aria-labelledby="logoTitle">
  <title id="logoTitle">Pa dónde</title>
  <defs>
    <linearGradient id="bubbleGradient" x1="0" y1="0" x2="1" y2="1">
      <stop offset="0" stop-color="#05b1b7" />
      <stop offset="1" stop-color="#018a96" />
    </linearGradient>
    <filter id="bubbleShadow" x="-12%" y="-18%" width="124%" height="150%" color-interpolation-filters="sRGB">
      <feDropShadow dx="0" dy="8" stdDeviation="8" flood-color="#022d34" flood-opacity="0.45" />
    </filter>
  </defs>

  <!-- Burbuja principal -->
  <g filter="url(#bubbleShadow)">
    <path d="M32 26h136c12.15 0 22 9.85 22 22v86c0 12.15-9.85 22-22 22h-48l-20 24-20-24H32c-12.15 0-22-9.85-22-22V48c0-12.15 9.85-22 22-22z" fill="url(#bubbleGradient)" />
  </g>

  <!-- Autobús -->
  <g transform="translate(52 60)">
    <rect width="70" height="70" rx="14" fill="#ffffff" />
    <rect x="10" y="16" width="50" height="28" rx="6" fill="#03a2ad" />
    <rect x="18" y="8" width="34" height="8" rx="4" fill="#03a2ad" />
    <rect x="10" y="40" width="50" height="10" fill="#d4f9fb" />
    <circle cx="18" cy="60" r="7" fill="#038592" />
    <circle cx="52" cy="60" r="7" fill="#038592" />
  </g>

  <!-- Pin de ubicación -->
  <g transform="translate(116 54)">
    <path d="M32 0c17.673 0 32 14.327 32 32 0 12.8-10.8 27.7-32 45-21.2-17.3-32-32.2-32-45C0 14.327 14.327 0 32 0z" fill="#ffffff" />
    <circle cx="32" cy="32" r="11" fill="#04a2ae" />
  </g>

  <!-- Texto -->
  <text x="100" y="178" text-anchor="middle" font-size="26" font-family="'Poppins','Segoe UI',sans-serif" fill="#ffffff" font-weight="600">
    Pa dónde
  </text>
</svg>