<svg width="160" height="160" viewBox="0 0 160 160" fill="none" xmlns="http://www.w3.org/2000/svg">
  <defs>
    <linearGradient id="bg" x1="0" y1="0" x2="1" y2="1">
      <stop offset="0" stop-color="#03BFA4" />
      <stop offset="1" stop-color="#009B7A" />
    </linearGradient>
    <linearGradient id="mark" x1="0" y1="0" x2="1" y2="1">
      <stop offset="0" stop-color="#E9FFFB" />
      <stop offset="1" stop-color="#D5FFF3" />
    </linearGradient>
  </defs>
  <path d="M36 14h88c11.046 0 20 8.954 20 20v56c0 11.046-8.954 20-20 20h-35.172L80 146 71.172 110H36c-11.046 0-20-8.954-20-20V34c0-11.046 8.954-20 20-20z" fill="url(#bg)" />
  <rect x="50" y="42" width="60" height="40" rx="8" fill="#F5FFFC" />
  <path d="M55 64h10M95 64h10" stroke="#03A68D" stroke-width="6" stroke-linecap="round" />
  <rect x="68" y="110" width="24" height="12" rx="6" fill="#0C3E4A" opacity="0.4" />
  <path d="M80 38c4.418 0 8-3.582 8-8s-3.582-8-8-8-8 3.582-8 8 3.582 8 8 8z" fill="#F0FFFD" />
  <path d="M112 92c0 9.941-8.059 18-18 18s-18-8.059-18-18 8.059-18 18-18 18 8.059 18 18z" fill="url(#mark)" />
  <path d="M94.5 87l5.657 5.657-5.657 5.657" stroke="#07AA90" stroke-width="6" stroke-linecap="round" stroke-linejoin="round" />
  <path d="M68 42V30c0-6.627 5.373-12 12-12h0c6.627 0 12 5.373 12 12v12" stroke="#0B695D" stroke-width="10" stroke-linecap="round" />
</svg>